# xmcd
#
# Track frame offsets:
#	150
#	15347
#	31332
#	44385
#	58445
#	76133
#	93822
#	109075
#	123910
#	138405
#	155852
#	172382
#	186690
#	205937
#	216860
#	232680
#	248127
#	265560
#	283525
#
# Disc length: 4014
#
# Revision: 1
# Processed by: cddbd v1.5.1PL0 Copyright (c) Steve Scherf et al.
# Submitted via: audiograbber 1.82.02
# Normalized: r0:DSETVAR1
#
DISCID=0d0fac13
DTITLE=Various Artist - GoldDisc 2013
DYEAR=1980
DGENRE=Country
TTITLE0=Patty Loveless - Blue Side Of Town
TTITLE1=George Strait - Baby's Gotten Good At Goodbye
TTITLE2=Southern Pacific - Honey I Dare You
TTITLE3=Ronnie Milsap - Don't You Ever Get Tired (Of Hurting Me)
TTITLE4=Earl Thomas Conley - What I'd Say
TTITLE5=Dan Seals - Big Wheels In The Moonlight
TTITLE6=Kathy Mattea - Life As We Knew It
TTITLE7=Skip Ewing - Burnin' A Hole In My Heart
TTITLE8=Steve Wariner - Hold On (A Little Longer)
TTITLE9=Dwight Yoakam - I Sang Dixie
TTITLE10=Highway 101 - All The Reasons Why
TTITLE11=Gene Watson - Don't Waste It On The Blues
TTITLE12=Desert Rose Band - I Still Believe In You
TTITLE13=Ricky Van Shelton - From A Jack To A King
TTITLE14=Tanya Tucker - Highway Robbery
TTITLE15=Conway Twitty - I Wish I Was Still In Your Dreams
TTITLE16=Reba McEntire - New Fool At An Old Game
TTITLE17=Eddy Raven - 'Til You Cry
TTITLE18=Forester Sisters - Sincerely
EXTD=
EXTT0=
EXTT1=
EXTT2=
EXTT3=
EXTT4=
EXTT5=
EXTT6=
EXTT7=
EXTT8=
EXTT9=
EXTT10=
EXTT11=
EXTT12=
EXTT13=
EXTT14=
EXTT15=
EXTT16=
EXTT17=
EXTT18=
PLAYORDER=
